HIERARCHY
ROOT joint_Root
{
	OFFSET 0.0 0.0 0.0
	CHANNELS 6 Xposition Yposition Zposition Zrotation Xrotation Yrotation 
	JOINT Hips
	{
		OFFSET 4.5925 91.4895 -427.239
		CHANNELS 6 Xposition Yposition Zposition Zrotation Xrotation Yrotation 
		JOINT Spine
		{
			OFFSET 15.7357 0.0 0.0
			CHANNELS 6 Xposition Yposition Zposition Zrotation Xrotation Yrotation 
			JOINT Chest
			{
				OFFSET 8.98455 -0.406207 0.0
				CHANNELS 6 Xposition Yposition Zposition Zrotation Xrotation Yrotation 
				JOINT Neck
				{
					OFFSET 16.3773 0.0 0.0
					CHANNELS 6 Xposition Yposition Zposition Zrotation Xrotation Yrotation 
					JOINT Head
					{
						OFFSET 6.45672 0.0 0.0
						CHANNELS 6 Xposition Yposition Zposition Zrotation Xrotation Yrotation 
						End Site
						{
							OFFSET 0.0 0.0 0.0
						}
					}
				}
				JOINT Shoulder_L
				{
					OFFSET 12.9942 -0.242716 4.98039
					CHANNELS 6 Xposition Yposition Zposition Zrotation Xrotation Yrotation 
					JOINT UpperArm_L
					{
						OFFSET 5.34809 0.0 0.0
						CHANNELS 6 Xposition Yposition Zposition Zrotation Xrotation Yrotation 
						JOINT LowerArm_L
						{
							OFFSET 24.3286 1.87007e-05 0.0
							CHANNELS 6 Xposition Yposition Zposition Zrotation Xrotation Yrotation 
							JOINT Hand_L
							{
								OFFSET 22.2916 0.0 0.0
								CHANNELS 6 Xposition Yposition Zposition Zrotation Xrotation Yrotation 
								End Site
								{
									OFFSET 0.0 0.0 0.0
								}
							}
						}
					}
				}
				JOINT Shoulder_R
				{
					OFFSET 12.9945 -0.242716 -4.98039
					CHANNELS 6 Xposition Yposition Zposition Zrotation Xrotation Yrotation 
					JOINT UpperArm_R
					{
						OFFSET -5.34813 0.0 0.0
						CHANNELS 6 Xposition Yposition Zposition Zrotation Xrotation Yrotation 
						JOINT LowerArm_R
						{
							OFFSET -24.3289 0.000322201 0.0
							CHANNELS 6 Xposition Yposition Zposition Zrotation Xrotation Yrotation 
							JOINT Hand_R
							{
								OFFSET -22.2915 -0.000108084 0.0
								CHANNELS 6 Xposition Yposition Zposition Zrotation Xrotation Yrotation 
								End Site
								{
									OFFSET 0.0 0.0 0.0
								}
							}
						}
					}
				}
			}
		}
		JOINT UpperLeg_L
		{
			OFFSET -2.19248 -6.46944 0.0
			CHANNELS 6 Xposition Yposition Zposition Zrotation Xrotation Yrotation 
			JOINT LowerLeg_L
			{
				OFFSET 39.0811 0.0 -1.23785e-05
				CHANNELS 6 Xposition Yposition Zposition Zrotation Xrotation Yrotation 
				JOINT Foot_L
				{
					OFFSET 40.9854 0.0 -1.26872e-05
					CHANNELS 6 Xposition Yposition Zposition Zrotation Xrotation Yrotation 
					JOINT Toes_L
					{
						OFFSET 11.7543 0.0 0.0
						CHANNELS 6 Xposition Yposition Zposition Zrotation Xrotation Yrotation 
						End Site
						{
							OFFSET 0.0 0.0 0.0
						}
					}
				}
			}
		}
		JOINT UpperLeg_R
		{
			OFFSET -2.19251 6.46944 0.0
			CHANNELS 6 Xposition Yposition Zposition Zrotation Xrotation Yrotation 
			JOINT LowerLeg_R
			{
				OFFSET -39.0811 -0.00228153 -0.0401928
				CHANNELS 6 Xposition Yposition Zposition Zrotation Xrotation Yrotation 
				JOINT Foot_R
				{
					OFFSET -40.9854 0.0 0.0
					CHANNELS 6 Xposition Yposition Zposition Zrotation Xrotation Yrotation 
					JOINT Toes_R
					{
						OFFSET -11.7543 0.0 0.0
						CHANNELS 6 Xposition Yposition Zposition Zrotation Xrotation Yrotation 
						End Site
						{
							OFFSET 0.0 0.0 0.0
						}
					}
				}
			}
		}
	}
}
MOTION
Frames:	4
Frame Time:	0.0333333
0.000000 0.000000 0.000000 0.000000 0.000000 -0.000000 -0.663665 81.142900 -2.477410 90.693700 -4.864480 11.524500 15.735700 0.000005 -0.000001 92.481300 80.345200 -93.597600 8.984550 -0.406207 -0.000000 11.535000 0.792530 -2.311920 16.377300 -0.000001 -0.000001 -2.515130 -1.853630 0.318680 6.456720 -0.000001 -0.000000 -2.725270 -3.088590 5.187270 12.994200 -0.242716 4.980390 -91.447500 5.316150 -74.745100 5.348090 -0.000007 -0.000001 -66.862800 18.710100 -11.864000 24.328600 0.000019 0.000005 11.982600 21.591800 -29.974600 22.291600 -0.000001 0.000005 8.674390 5.325760 -0.665707 12.994500 -0.242716 -4.980390 88.881000 7.848900 -81.860000 -5.348130 -0.000001 -0.000004 -62.444400 33.840700 -9.272990 -24.328900 0.000322 -0.000009 1.764740 3.030930 -30.245500 -22.291500 -0.000108 -0.000004 19.360600 5.471130 -5.412640 -2.192480 -6.469440 -0.000000 -174.283000 -15.720500 -16.419800 39.081100 -0.000007 -0.000012 -0.422896 0.198625 64.842600 40.985400 -0.000006 -0.000013 2.674170 6.862120 -86.438800 11.754300 -0.000000 0.000003 -0.000521 -0.004121 -16.727900 -2.192510 6.469440 -0.000001 175.300000 11.164600 162.500000 -39.081100 -0.002282 -0.040193 0.087522 -0.037688 65.928300 -40.985400 0.000008 0.000006 6.822120 4.092900 -86.811300 -11.754300 -0.000006 -0.000006 -0.834024 -1.033770 -16.654100
0.000000 0.000000 0.000000 0.000000 0.000000 -0.000000 -0.400471 82.797000 -1.769890 91.192300 -5.520990 11.647300 15.735700 0.000005 -0.000001 90.928000 80.967500 -91.397800 8.984550 -0.406207 -0.000000 10.298000 0.280256 -0.964261 16.377300 -0.000001 -0.000001 -1.288830 -1.702410 0.460016 6.456720 -0.000001 -0.000000 -1.932390 -2.469970 4.697690 12.994200 -0.242716 4.980390 -91.320300 4.569500 -73.865300 5.348090 -0.000007 -0.000001 -62.839400 14.063600 -16.576900 24.328600 0.000019 0.000005 13.056200 19.322100 -35.025200 22.291600 -0.000001 0.000005 7.672600 5.346160 -1.262000 12.994500 -0.242716 -4.980390 88.787400 7.723880 -81.050100 -5.348130 -0.000001 -0.000004 -64.387900 31.075400 -7.255370 -24.328900 0.000322 -0.000009 1.346690 2.511440 -28.231200 -22.291500 -0.000108 -0.000004 20.570100 5.479840 -5.741950 -2.192480 -6.469440 -0.000000 -174.935000 -15.944100 -13.269300 39.081100 -0.000007 -0.000012 -0.390103 0.225472 59.973900 40.985400 -0.000006 -0.000013 2.307390 6.389960 -84.627900 11.754300 -0.000000 0.000003 -0.000508 -0.004036 -16.725000 -2.192510 6.469440 -0.000001 174.648000 10.230600 165.217000 -39.081100 -0.002282 -0.040193 0.072353 -0.037618 61.457500 -40.985400 0.000008 0.000006 6.417100 4.368790 -85.020100 -11.754300 -0.000006 -0.000006 -0.734732 -0.907276 -16.726100
0.000000 0.000000 0.000000 0.000000 0.000000 -0.000000 -0.269589 85.201300 -1.052120 91.604000 -5.589150 11.646800 15.735700 0.000005 -0.000001 89.449500 81.818500 -89.171100 8.984550 -0.406207 -0.000000 8.596660 -0.154432 0.567985 16.377300 -0.000001 -0.000001 0.788744 -1.995000 0.601641 6.456720 -0.000001 -0.000000 -0.762508 -2.339600 4.194640 12.994200 -0.242716 4.980390 -90.971600 3.222280 -73.210300 5.348090 -0.000007 -0.000001 -56.003100 7.588510 -25.927800 24.328600 0.000019 0.000005 12.629500 16.171400 -38.818500 22.291600 -0.000001 0.000005 10.022200 5.358850 -1.644570 12.994500 -0.242716 -4.980390 88.701200 7.251130 -79.816800 -5.348130 -0.000001 -0.000004 -66.086100 28.468900 -3.931330 -24.328900 0.000322 -0.000009 -0.067838 -0.127158 -27.699300 -22.291500 -0.000108 -0.000004 21.177200 5.501440 -6.591620 -2.192480 -6.469440 -0.000000 -175.419000 -16.012900 -8.938840 39.081100 -0.000007 -0.000012 -0.349685 0.269844 52.344300 40.985400 -0.000006 -0.000013 2.028380 6.578860 -81.375400 11.754300 -0.000000 0.000003 -0.000418 -0.003433 -16.703900 -2.192510 6.469440 -0.000001 173.822000 10.725900 169.269000 -39.081100 -0.002282 -0.040193 0.056865 -0.038494 54.332800 -40.985400 0.000008 0.000006 6.195420 5.531300 -81.946300 -11.754300 -0.000006 -0.000006 -0.584816 -0.718892 -16.899600
0.000000 0.000000 0.000000 0.000000 0.000000 -0.000000 -0.354250 87.584800 -0.611222 91.355100 -4.925920 10.487500 15.735700 0.000005 -0.000001 86.701700 83.076500 -85.514000 8.984550 -0.406207 -0.000000 6.068060 -0.812092 2.415950 16.377300 -0.000001 -0.000001 2.962900 -2.815750 0.856467 6.456720 -0.000001 -0.000000 0.644210 -2.388150 3.961950 12.994200 -0.242716 4.980390 -90.406200 1.368970 -73.473000 5.348090 -0.000007 -0.000001 -49.582600 -3.381980 -37.194300 24.328600 0.000019 0.000005 8.124090 9.246960 -41.618200 22.291600 -0.000001 0.000005 12.936300 5.359220 -1.655430 12.994500 -0.242716 -4.980390 88.663100 6.321440 -78.032600 -5.348130 -0.000001 -0.000004 -66.716000 27.032600 -0.800295 -24.328900 0.000322 -0.000009 -0.298485 -0.560113 -27.969400 -22.291500 -0.000108 -0.000004 20.574600 5.520220 -7.371540 -2.192480 -6.469440 -0.000000 -175.402000 -16.095600 -5.768540 39.081100 -0.000007 -0.000012 -0.271772 0.281095 44.034500 40.985400 -0.000006 -0.000013 1.797410 7.454640 -77.402100 11.754300 -0.000000 0.000003 -0.000270 -0.002383 -16.666600 -2.192510 6.469440 -0.000001 173.678000 13.140300 172.680000 -39.081100 -0.002282 -0.040193 0.044411 -0.039498 46.174000 -40.985400 0.000008 0.000006 6.328240 7.520810 -78.201600 -11.754300 -0.000006 -0.000006 -0.471655 -0.579639 -17.107100
